# xmcd CD database file generated by Grip 3.2.0
# 
# Track frame offsets:
#       150
#       16384
#       33861
#       51771
#       68850
#       87960
#       104334
#       122791
#       139713
#       156720
# 
# Disc length: 2339 seconds
# 
# Revision: 2
# Processed by: cddbd v1.5.2PL0 Copyright (c) Steve Scherf et al.
# Submitted via: Grip 3.2.0
# 
DISCID=8609210a
DTITLE=Various Artist - Soundtrack Top Gun
DYEAR=2000
DGENRE=Pop
TTITLE0=Kenny Loggins - Danger Zone
TTITLE1=Cheap Trick - Mighty Wings
TTITLE2=Kenny Loggins - Playing with the Boys
TTITLE3=Teena Marie - Lead me on
TTITLE4=Berlin - Take my breath away
TTITLE5=Miami sound Machine - Hot summer nights
TTITLE6=Loverboy - Heaven in your eyes
TTITLE7=Larry Greene - Through the fire
TTITLE8=Marietta - Destination Unknown
TTITLE9=Haraold Faltermeyer and Steve Stevens - Top Gun Anthem
EXTD=
EXTT0=
EXTT1=
EXTT2=
EXTT3=
EXTT4=
EXTT5=
EXTT6=
EXTT7=
EXTT8=
EXTT9=
PLAYORDER=
